<?xml version="1.0" encoding="UTF-8"?>
<svg viewBox="0 0 28 28" version="1.1" xmlns="http://www.w3.org/2000/svg" xmlns:xlink="http://www.w3.org/1999/xlink">
    <title>Map</title>
    <g id="Page-1" stroke="none" stroke-width="1" fill="none" fill-rule="evenodd">
        <g id="noun_Map_3750186" transform="translate(-2.000000, -1.000000)" fill="var( --theme-icon )" fill-rule="nonzero">
            <path d="M29.56,1.16 C29.2632741,0.959213576 28.8818052,0.932510755 28.56,1.09 L20.34,4.9 L12.08,1.09 L11.93,1.09 L11.81,1.09 C11.7072145,1.07495179 11.6027855,1.07495179 11.5,1.09 L11.39,1.09 L11.24,1.09 L2.56,5.09 C2.21333978,5.25982193 1.99538042,5.61400588 1.99992799,6 L1.99992799,28 C2.0005664,28.3399921 2.17383986,28.6564045 2.46,28.84 C2.62095361,28.9439672 2.80838844,28.9995034 3,29.0000144 C3.14467496,28.9989771 3.28760907,28.9683484 3.42,28.91 L11.68,25.1 L19.94,28.91 C20.0718282,28.9700682 20.2151336,29.0007765 20.36,29.0000144 C20.5048664,29.0007765 20.6481718,28.9700682 20.78,28.91 L29.46,24.91 C29.798889,24.73455 30.0083788,24.381521 30.0002423,24 L30.0002423,2 C30.0038536,1.66384038 29.838539,1.34823967 29.56,1.16 Z M10.66,23.36 L4,26.44 L4,6.64 L10.68,3.56 L10.66,23.36 Z M12.66,3.56 L19.34,6.64 L19.34,26.44 L12.66,23.36 L12.66,3.56 Z M28,23.36 L21.32,26.44 L21.32,6.64 L28,3.56 L28,23.36 Z" id="Shape"></path>
        </g>
    </g>
</svg>