<?xml version="1.0" encoding="UTF-8"?>
<svg viewBox="0 0 24 23" version="1.1" xmlns="http://www.w3.org/2000/svg" xmlns:xlink="http://www.w3.org/1999/xlink">
    <title>Taxi Cab</title>
    <g id="Page-1" stroke="none" stroke-width="1" fill="none" fill-rule="evenodd">
        <g id="Desktop" transform="translate(-85.000000, -301.000000)" fill="var( --theme-text, #000000 )">
            <g id="Group" transform="translate(85.000000, 117.000000)">
                <path d="M23.2653519,199.441679 L23.2653519,200.324215 L0.887325525,200.324215 L0.887325525,199.441679 C0.887325525,197.736781 1.5728773,196.330951 2.70179246,195.222692 L2.02522172,195.222692 C1.46749991,195.222692 1.01156307,194.766755 1.01156307,194.209033 L1.01156307,193.736332 C1.01156307,193.17861 1.46749991,192.722673 2.02522172,192.722673 L3.63761554,192.722673 L3.89207799,190.680088 C4.1884519,188.299817 5.92029338,186.240467 8.44635707,186.240467 L9.94888298,186.240467 L9.94888298,185.425289 L10.2302885,185.425289 L10.4709801,184.433484 C10.5272612,184.201474 10.6658684,184 10.9044643,184 L14.0457284,184 C14.2843244,184 14.4226322,184.201474 14.4792127,184.433484 L14.7196048,185.425289 L15.0010104,185.425289 L15.0010104,186.240467 L15.706021,186.240467 C18.2320847,186.240467 19.9639262,188.299817 20.2603001,190.680088 L20.5150619,192.722673 L22.1274557,192.722673 C22.6851776,192.722673 23.1411144,193.17861 23.1411144,193.736332 L23.1411144,194.209033 C23.1411144,194.766755 22.6851776,195.222692 22.1274557,195.222692 L21.4511844,195.222692 C22.5798002,196.33125 23.2653519,197.73708 23.2653519,199.441679 Z M0,206.081054 L2.02971223,206.081054 C1.66178947,205.938854 1.39864536,205.580811 1.39864536,205.16439 L1.39864536,203.681623 C-0.297870748,203.504098 -0.16614901,200.973244 1.53994686,200.973244 L22.6127306,200.973244 C24.3188265,200.973244 24.4505482,203.504098 22.7540321,203.681623 L22.7540321,205.16439 C22.7540321,205.580811 22.4911874,205.938854 22.1232646,206.081054 L24,206.081054 L24,206.841447 L10.8415971,206.841447 L10.8415971,206.081054 L19.548404,206.081054 C19.1804812,205.938854 18.9176365,205.580811 18.9176365,205.16439 L18.9176365,203.689107 L5.23534034,203.689107 L5.23534034,205.16439 C5.23534034,205.580811 4.97219624,205.938854 4.60427347,206.081054 L9.20794821,206.081054 L9.20794821,206.841447 L0,206.841447 L0,206.081054 L0,206.081054 Z M10.6407215,188.741983 L11.6061819,188.741983 L11.6061819,188.268383 L8.44635707,188.268383 C6.96778056,188.268383 6.07267148,189.57153 5.90382816,190.92557 L5.60206564,193.347753 C9.40912323,191.720091 14.7426561,191.719493 18.5503125,193.347454 L18.2485499,190.92557 C18.0797066,189.570333 17.1866931,188.268383 15.706021,188.268383 L12.5467949,188.268383 L12.5467949,188.741983 L13.5122554,188.741983 L13.5122554,189.682596 L10.6407215,189.682596 L10.6407215,188.741983 L10.6407215,188.741983 Z M12.8060472,185.833626 L12.1438461,185.833626 L12.1438461,185.171425 L11.481645,185.171425 L11.481645,184.509224 L12.1438461,184.509224 L12.1438461,185.171425 L12.8060472,185.171425 L12.8060472,184.509224 L13.467949,184.509224 L13.467949,185.171425 L12.8060472,185.171425 L12.8060472,185.833626 Z M4.69977173,196.756652 C5.42992927,196.756652 6.02147962,197.348501 6.02147962,198.078659 C6.02147962,198.808517 5.42992927,199.400367 4.69977173,199.400367 C3.96991356,199.400367 3.37806384,198.808517 3.37806384,198.078659 C3.37806384,197.348501 3.96991356,196.756652 4.69977173,196.756652 Z M19.4529057,196.756951 C20.1827639,196.756951 20.7746136,197.348801 20.7746136,198.078659 C20.7746136,198.808517 20.1827639,199.400367 19.4529057,199.400367 C18.7227482,199.400367 18.1308985,198.808517 18.1308985,198.078659 C18.1308985,197.348801 18.7227482,196.756951 19.4529057,196.756951 Z" id="Shape"></path>
            </g>
        </g>
    </g>
</svg>
