<?xml version="1.0" encoding="UTF-8"?>
<svg viewBox="0 0 28 28" version="1.1" xmlns="http://www.w3.org/2000/svg" xmlns:xlink="http://www.w3.org/1999/xlink">
    <title>Globe</title>
    <g id="Page-1" stroke="none" stroke-width="1" fill="none" fill-rule="evenodd">
        <g id="noun_Globe_3749150" transform="translate(-2.000000, 0.000000)" fill="var(--theme-icon)" fill-rule="nonzero">
            <path d="M25.9,23.9 C25.9,23.9 25.9,23.9 25.9,23.9 C28.5,21.3 30,17.8 30,14 C30,10.2 28.4,6.7 25.9,4.2 C25.9,4.2 25.9,4.1 25.9,4.1 C25.9,4.1 25.8,4.1 25.8,4 C23.3,1.5 19.8,-1.77635684e-15 16,-1.77635684e-15 C16,-1.77635684e-15 16,-1.77635684e-15 16,-1.77635684e-15 C16,-1.77635684e-15 16,-1.77635684e-15 16,-1.77635684e-15 C16,-1.77635684e-15 16,-1.77635684e-15 16,-1.77635684e-15 C12.2,-1.77635684e-15 8.7,1.5 6.2,4 C6.2,4 6.1,4 6.1,4.1 C6.1,4.1 6.1,4.1 6.1,4.2 C3.6,6.7 2,10.2 2,14 C2,17.8 3.6,21.3 6.1,23.8 C6.1,23.8 6.1,23.9 6.1,23.9 C6.1,23.9 6.2,23.9 6.2,24 C8.7,26.5 12.2,28 16,28 C16,28 16,28 16,28 C16,28 16,28 16,28 C16,28 16,28 16,28 C19.8,28 23.3,26.5 25.9,23.9 C25.8,23.9 25.9,23.9 25.9,23.9 Z M4.1,15 L7.5,15 C7.6,16.9 8,18.7 8.8,20.5 C8.2,20.9 7.5,21.3 7,21.8 C5.3,19.9 4.3,17.6 4.1,15 Z M6.9,6.2 C7.5,6.7 8.1,7.1 8.7,7.5 C8,9.3 7.6,11.1 7.4,13 L4.1,13 C4.3,10.4 5.3,8.1 6.9,6.2 Z M27.9,13 L24.5,13 C24.4,11.1 24,9.3 23.2,7.5 C23.8,7.1 24.5,6.7 25,6.2 C26.7,8.1 27.7,10.4 27.9,13 Z M17,2.8 C18.4,3.8 19.6,5.1 20.6,6.7 C19.5,7.2 18.2,7.5 17,7.6 L17,2.8 Z M15,7.5 C13.8,7.4 12.6,7.1 11.4,6.6 C12.3,5 13.6,3.7 15,2.7 L15,7.5 Z M10.5,8.4 C11.9,9 13.4,9.4 15,9.5 L15,13 L9.5,13 C9.6,11.4 9.9,9.9 10.5,8.4 Z M15,15 L15,18.5 C13.5,18.6 11.9,19 10.5,19.6 C9.9,18.2 9.6,16.6 9.5,15 L15,15 Z M15,20.5 L15,25.3 C13.6,24.3 12.4,23 11.4,21.4 C12.6,20.9 13.8,20.6 15,20.5 Z M17,20.5 C18.2,20.6 19.4,20.9 20.6,21.4 C19.7,23 18.4,24.3 17,25.3 L17,20.5 Z M21.5,19.6 C20.1,19 18.6,18.6 17,18.5 L17,15 L22.5,15 C22.4,16.6 22.1,18.1 21.5,19.6 Z M17,13 L17,9.5 C18.6,9.4 20.1,9 21.5,8.4 C22.1,9.8 22.4,11.4 22.5,13 L17,13 Z M22.4,5.7 C21.7,4.6 20.9,3.6 20.1,2.7 C21.4,3.2 22.7,3.9 23.8,4.8 C23.3,5.1 22.8,5.5 22.4,5.7 Z M9.6,5.7 C9.2,5.5 8.7,5.1 8.3,4.8 C9.4,3.9 10.6,3.2 12,2.7 C11.1,3.6 10.3,4.6 9.6,5.7 Z M9.6,22.3 C10.3,23.4 11,24.4 11.9,25.3 C10.6,24.8 9.3,24.1 8.2,23.2 C8.7,22.9 9.2,22.5 9.6,22.3 Z M22.4,22.3 C22.9,22.6 23.3,22.9 23.7,23.2 C22.6,24.1 21.4,24.8 20,25.3 C20.9,24.4 21.7,23.4 22.4,22.3 Z M23.3,20.5 C24,18.8 24.5,16.9 24.6,15 L28,15 C27.8,17.6 26.8,19.9 25.2,21.8 C24.5,21.3 23.9,20.8 23.3,20.5 Z" id="Shape"></path>
        </g>
    </g>
</svg>