<?xml version="1.0" encoding="UTF-8"?>
<svg viewBox="0 0 62 60" version="1.1" xmlns="http://www.w3.org/2000/svg" xmlns:xlink="http://www.w3.org/1999/xlink">
    <title>Play</title>
    <g id="Page-1" stroke="none" stroke-width="1" fill="none" fill-rule="evenodd">
        <g id="noun_Video-Message_3547788" transform="translate(-19.000000, 0.000000)" fill-rule="nonzero">
            <g id="Group" transform="translate(19.988144, -0.000000)">
                <path d="M30.0118563,0 C13.4433138,0 0.0118563162,13.4314575 0.0118563162,30 C-0.070977584,34.7918038 1.08280997,39.5240549 3.36185632,43.74 L0.361856316,51.95 C-0.435435717,54.1410676 0.10882528,56.5956224 1.7575296,58.2443267 C3.40623392,59.893031 5.8607887,60.437292 8.05185632,59.64 L16.2618563,56.64 C20.47983,58.924195 25.2157946,60.0814925 30.0118563,60 C46.5803988,60 60.0118563,46.5685425 60.0118563,30 C60.0118563,13.4314575 46.5803988,0 30.0118563,0 L30.0118563,0 Z" id="Shape" fill="var( --theme-icon )"></path>
                <path d="M41.2218563,23.49 L29.8218563,17 C27.5865483,15.7189501 24.8379868,15.7260884 22.6093629,17.0187315 C20.380739,18.3113746 19.009789,20.6936292 19.011854,23.27 L19.011854,36.73 C19.009789,39.3063708 20.380739,41.6886254 22.6093629,42.9812685 C24.8379868,44.2739116 27.5865483,44.2810499 29.8218563,43 L41.2218563,36.46 C43.5417035,35.1174645 44.9701944,32.6403157 44.9701944,29.96 C44.9701944,27.2796843 43.5417035,24.8025355 41.2218563,23.46 L41.2218563,23.49 Z" id="Shape" fill="var( --theme-icon-contents, var( --theme-background ) )"></path>
            </g>
        </g>
    </g>
</svg>