<?xml version="1.0" encoding="UTF-8"?>
<svg viewBox="0 0 24 18" version="1.1" xmlns="http://www.w3.org/2000/svg" xmlns:xlink="http://www.w3.org/1999/xlink">
    <title>Terminal</title>
    <g id="Page-1" stroke="none" stroke-width="1" fill="none" fill-rule="evenodd">
        <g id="iPhone-11" transform="translate(-36.000000, -608.000000)" fill="var( --theme-icon, #000000 )" fill-rule="nonzero">
            <g id="Tools" transform="translate(0.000000, 306.000000)">
                <path d="M58.5205479,302.000089 L37.4630137,302.000089 C36.6550135,302.000089 36,302.657229 36,303.467737 L36,318.532444 C36,319.342953 36.6550135,320 37.4630137,320 L58.5369863,320 C59.3449865,320 60,319.342953 60,318.532444 L60,303.467737 C60,303.075644 59.8436317,302.699844 59.5656978,302.424145 C59.2877639,302.148446 58.9114036,301.995776 58.5205479,302.000089 Z M45.0246575,311.07924 C45.0246575,311.102325 45.0246575,311.12541 45.0246575,311.145197 C45.0246575,311.164985 45.0246575,311.207857 45.0082192,311.23424 C44.9917808,311.260623 44.9786301,311.306794 44.9654795,311.339772 C44.9609063,311.354907 44.954268,311.369335 44.9457534,311.382645 C44.921279,311.432678 44.8903266,311.47925 44.8536986,311.521156 L44.8536986,311.521156 C44.8187037,311.562861 44.7802064,311.601478 44.7386301,311.636581 L41.1221918,314.604672 C40.9751241,314.72389 40.7918268,314.789057 40.6027397,314.789356 C40.3562937,314.79004 40.1228712,314.678426 39.9682192,314.485948 C39.829907,314.316748 39.7643191,314.099335 39.7859021,313.881599 C39.807485,313.663862 39.9144684,313.463662 40.0832877,313.325095 L42.9041096,311.000091 L40.0668493,308.671789 C39.7145976,308.384013 39.6616077,307.864281 39.9484932,307.510936 C40.2353786,307.157591 40.7535017,307.104436 41.1057534,307.392212 L44.7221918,310.360303 L44.7221918,310.360303 C44.7572603,310.393281 44.790137,310.42626 44.8208219,310.459239 L44.8208219,310.479026 L44.8208219,310.479026 C44.8574499,310.520931 44.8884023,310.567504 44.9128767,310.617537 C44.9213913,310.630847 44.9280296,310.645275 44.9326027,310.660409 C44.9326027,310.693388 44.9621918,310.729665 44.9753425,310.765942 C44.9884932,310.802218 44.9753425,310.825303 44.9917808,310.854984 C45.0082192,310.884665 44.9917808,310.897857 44.9917808,310.920942 C45.00451,310.946549 45.0154941,310.972993 45.0246575,311.000091 C45.026303,311.026448 45.026303,311.052883 45.0246575,311.07924 Z M50.7780822,314.462863 L46.8328767,314.462863 C46.378944,314.462863 46.0109589,314.093735 46.0109589,313.638393 C46.0109589,313.183051 46.378944,312.813924 46.8328767,312.813924 L50.7780822,312.813924 C51.2320149,312.813924 51.6,313.183051 51.6,313.638393 C51.6,314.093735 51.2320149,314.462863 50.7780822,314.462863 L50.7780822,314.462863 Z" id="Terminal"></path>
            </g>
        </g>
    </g>
</svg>