<?xml version="1.0" encoding="UTF-8"?>
<svg viewBox="0 0 24 20" version="1.1" xmlns="http://www.w3.org/2000/svg" xmlns:xlink="http://www.w3.org/1999/xlink">
    <title>Twitter</title>
    <g id="Page-1" stroke="none" stroke-width="1" fill="none" fill-rule="evenodd">
        <g id="iPhone-11" transform="translate(-36.000000, -1282.000000)" fill="var( --theme-text, #000000 )" fill-rule="nonzero">
            <g id="Twitter" transform="translate(0.000000, 1018.000000)">
                <path d="M57.5429616,268.854857 C57.5575868,269.066435 57.5575868,269.278013 57.5575868,269.491542 C57.5575868,275.997818 52.6045094,283.501536 43.5475929,283.501536 L43.5475929,283.497636 C40.8721511,283.501536 38.2522852,282.735174 36,281.290201 C36.3890311,281.337002 36.7800122,281.360402 37.1719683,281.361377 C39.389153,281.363327 41.5429616,280.619391 43.2872639,279.249494 C41.1802559,279.209519 39.3326021,277.835722 38.687142,275.830116 C39.4252285,275.972468 40.1857404,275.943217 40.9101767,275.745289 C38.6130408,275.281182 36.96039,273.262901 36.96039,270.918964 C36.96039,270.897514 36.96039,270.877038 36.96039,270.856563 C37.6448507,271.237794 38.4112127,271.449372 39.1951249,271.472773 C37.0315661,270.026825 36.3646557,267.14858 37.6711761,264.898245 C40.1711152,267.974418 43.8595978,269.844497 47.8191347,270.042425 C47.4223035,268.332249 47.9644119,266.540171 49.2436319,265.337977 C51.2268129,263.473748 54.3458867,263.569299 56.2101158,265.551505 C57.312858,265.334077 58.3697745,264.929445 59.3369896,264.356136 C58.9694089,265.495929 58.2001219,266.464119 57.1724558,267.079354 C58.1484461,266.964302 59.102011,266.702998 60,266.304217 C59.3389397,267.294832 58.5062767,268.157721 57.5429616,268.854857 Z" id="white_background"></path>
            </g>
        </g>
    </g>
</svg>